<svg xmlns="http://www.w3.org/2000/svg" xml:space="preserve" width="200" height="200" fill="#ECE8E1" viewBox="0 0 200 200"><path d="M180.407 159.457A99.57 99.57 0 0 0 200 100c0-20.543-6.193-39.643-16.822-55.528l-59.17 58.871ZM155.95 182.9 100 127.236 44.05 182.9A99.57 99.57 0 0 0 100 200c20.729 0 39.979-6.307 55.95-17.1M19.593 159.457A99.57 99.57 0 0 1 0 100c0-20.543 6.193-39.643 16.822-55.528l59.17 58.871ZM40.136 19.893 100 79.457l59.864-59.564A99.57 99.57 0 0 0 100 0a99.57 99.57 0 0 0-59.864 19.893"/></svg>